<svg xmlns="http://www.w3.org/2000/svg" xmlns:xlink="http://www.w3.org/1999/xlink" width="480" height="480" viewBox="0 0 480 480"><defs><linearGradient id="a" x1="0.5" y1="1" x2="0.564" gradientUnits="objectBoundingBox"><stop offset="0" stop-color="#e0e5ef" stop-opacity="0"/><stop offset="1" stop-color="#e0e5ef"/></linearGradient><linearGradient id="b" x1="0.5" x2="0.5" y2="1" gradientUnits="objectBoundingBox"><stop offset="0" stop-color="#d5d5d5"/><stop offset="1" stop-color="#6b6b6b" stop-opacity="0.059"/></linearGradient></defs><g transform="translate(-135 -375)"><ellipse cx="184" cy="184" rx="184" ry="184" transform="translate(191 431)" fill="#f3f3fa"/><path d="M112,259.243V96h64V259.243a187.037,187.037,0,0,1-64,0ZM0,192.931V0H88V253.371A184.268,184.268,0,0,1,0,192.931ZM208,24h96V169.434a184.369,184.369,0,0,1-96,81.193Z" transform="translate(230 536.999)" fill="url(#a)"/><g transform="translate(267.046 592.758) rotate(-25)"><rect width="156" height="200" rx="8" transform="translate(24 0)" fill="#78818e"/><path d="M8,0H144a8,8,0,0,1,8,8V192a8,8,0,0,1-8,8H8a8,8,0,0,1-8-8V8A8,8,0,0,1,8,0Z" transform="translate(24 0)" fill="#a1a7af"/><rect width="136" height="184" rx="4" transform="translate(32 8)" fill="#dae8e6"/><path d="M36,0H164a4.065,4.065,0,0,1,4,4.127c-7,174.567-15.744,174.717-15.744,174.717s-42.41.678-80.745-3.834A527.118,527.118,0,0,1-1.085,160.8S16,150.623,24,132.053s8-49.52,8-49.52V4.127A4.065,4.065,0,0,1,36,0Z" transform="translate(0 8)" fill="url(#b)"/><path d="M36,0H164a4,4,0,0,1,4,4c-7,169.209-11,171-11,171s-47.75-1.25-85-7A628,628,0,0,1,0,152a47.176,47.176,0,0,0,24-24c8-18,8-48,8-48V4A4,4,0,0,1,36,0Z" transform="translate(0 8)" fill="#fff"/><rect width="40" height="40" rx="2" transform="translate(48 40)" fill="#ebedf5"/><rect width="48" height="16" rx="2" transform="translate(104 40)" fill="#ebedf5"/><rect width="48" height="16" rx="2" transform="translate(104 64)" fill="#ebedf5"/><path d="M1,0S27,2,53,2s52-2,52-2l-1,12s-21.25,2-47,2S0,12,0,12Z" transform="translate(47 96)" fill="#ebedf5"/><path d="M2.5,0s14,2.438,40,2.75,63-1.5,63-1.5l-2,14S68,17.5,42.5,17.5,0,13.25,0,13.25Z" transform="translate(45.5 114.75)" fill="#ebedf5"/><path d="M4.5,0A254.823,254.823,0,0,0,40,3.333C60,3.833,108,2,108,2l-3,17s-38.417,2.75-65,2S0,16,0,16Z" transform="translate(40 136)" fill="#ebedf5"/></g><g transform="matrix(0.966, 0.259, -0.259, 0.966, 397.282, 500.051)"><rect width="6" height="32" rx="2" transform="translate(1)" fill="#b5b9be"/><rect width="6" height="32" rx="2" fill="#dddfe6"/></g><circle cx="1.5" cy="1.5" r="1.5" transform="translate(397 513.452)" fill="#909aa9"/><path d="M-3331,1132c188.947,26.75,289.45-16,289.45-16" transform="translate(3555.8 -620.625)" fill="none" stroke="#909aa9" stroke-linecap="round" stroke-width="2"/><g transform="translate(389 497.405)"><rect width="8" height="40" rx="2" transform="translate(1)" fill="#b5b9be"/><rect width="8" height="40" rx="2" fill="#cdd3df"/></g><g transform="translate(239.735 501.489)"><g transform="matrix(0.755, -0.656, 0.656, 0.755, 6.82, 4.592)"><rect width="6" height="32" rx="2" transform="translate(1)" fill="#b5b9be"/><rect width="6" height="32" rx="2" fill="#dddfe6"/></g><circle cx="1.5" cy="1.5" r="1.5" transform="translate(17.738 12.298) rotate(-56)" fill="#909aa9"/><g transform="translate(0 9.983) rotate(-56)"><rect width="8" height="40" rx="2" transform="translate(1)" fill="#b5b9be"/><rect width="8" height="40" rx="2" fill="#cdd3df"/></g></g><g transform="translate(401.477 603.089) rotate(30)"><rect width="45.744" height="15.248" transform="translate(0 53.368)" fill="#ff7278"/><rect width="68.616" height="15.248" transform="translate(45.744) rotate(90)" fill="#ff7278"/></g><path d="M134.011,161.88l-6.667,23.833,8.833,8.667,25.5-5.833,28.738-30.229L164.264,131.88Z" transform="translate(300.156 434.287)" fill="#78818e"/><path d="M135.344,155.3l-6.5,23.845,4.286,4.143,24.214-5.488,25.333-25.583L160.511,129.88Z" transform="translate(302.156 442.287)" fill="#e5e2e2"/><path d="M182.7,150.552l4.6-4.6a6.537,6.537,0,0,0,0-9.192l-13.148-13.148a6.537,6.537,0,0,0-9.192,0l-4.6,4.6Zm-18.983-14.068,10.671,10.671,5.835,5.835-22.74,22.74c-5.4,1.159-6.554-1.479-5.835-5.835-5.475-.759-9.552-3.2-10.511-9.432L156.487,145.6l-1.4-1.4-15.746,15.266c-3.956.32-4.8-2.238-4.2-6.075l22.74-22.74Z" transform="translate(302.156 444.132)" fill="#909aa9"/><path d="M182.7,150.552l4.6-4.6a6.537,6.537,0,0,0,0-9.192l-13.148-13.148a6.537,6.537,0,0,0-9.192,0l-4.6,4.6Z" transform="translate(302.156 444.067)" fill="#78818e"/><path d="M131.844,167.63l-3.332,11.577,4.476,4.476,12.356-2.8Z" transform="translate(302.156 442.287)" fill="#78818e"/><path d="M186.977,155.3l5.475-5.353a7.493,7.493,0,0,0,0-10.706l-15.663-15.314a7.914,7.914,0,0,0-10.95,0l-5.475,5.353Z" transform="translate(299.156 441.701)" fill="#78818e"/><path d="M182.7,150.552l4.6-4.6a6.537,6.537,0,0,0,0-9.192l-13.148-13.148a6.537,6.537,0,0,0-9.192,0l-4.6,4.6Z" transform="translate(301.156 444.995)" fill="#a1a7af"/></g></svg>